<svg width="123" height="34" viewBox="0 0 123 34" fill="none" xmlns="http://www.w3.org/2000/svg">
<path d="M6.5899 25.3284L3.7909 30.5214C3.5689 30.9354 3.3079 31.2444 3.0079 31.4484C2.7079 31.6524 2.3809 31.7544 2.0269 31.7544C1.7509 31.7544 1.4689 31.6914 1.1809 31.5654L1.4149 30.8454C1.6369 30.9234 1.8349 30.9624 2.0089 30.9624C2.4049 30.9624 2.7319 30.7524 2.9899 30.3324L3.1339 30.1074L0.595904 25.3284H1.5589L3.6019 29.3244L5.6989 25.3284H6.5899ZM11.6142 26.8584V31.6284H10.7502V27.6144H8.05915V31.6284H7.19515V26.8584H11.6142ZM15.815 26.8134C16.277 26.8134 16.691 26.9154 17.057 27.1194C17.423 27.3234 17.708 27.6084 17.912 27.9744C18.122 28.3404 18.227 28.7634 18.227 29.2434C18.227 29.7234 18.122 30.1494 17.912 30.5214C17.708 30.8874 17.423 31.1724 17.057 31.3764C16.691 31.5804 16.277 31.6824 15.815 31.6824C15.473 31.6824 15.158 31.6164 14.87 31.4844C14.588 31.3524 14.348 31.1604 14.15 30.9084V33.3744H13.286V26.8584H14.114V27.6144C14.306 27.3504 14.549 27.1524 14.843 27.0204C15.137 26.8824 15.461 26.8134 15.815 26.8134ZM15.743 30.9264C16.049 30.9264 16.322 30.8574 16.562 30.7194C16.808 30.5754 17 30.3774 17.138 30.1254C17.282 29.8674 17.354 29.5734 17.354 29.2434C17.354 28.9134 17.282 28.6224 17.138 28.3704C17 28.1124 16.808 27.9144 16.562 27.7764C16.322 27.6384 16.049 27.5694 15.743 27.5694C15.443 27.5694 15.17 27.6414 14.924 27.7854C14.684 27.9234 14.492 28.1184 14.348 28.3704C14.21 28.6224 14.141 28.9134 14.141 29.2434C14.141 29.5734 14.21 29.8674 14.348 30.1254C14.486 30.3774 14.678 30.5754 14.924 30.7194C15.17 30.8574 15.443 30.9264 15.743 30.9264ZM21.1393 26.8134C21.7993 26.8134 22.3033 26.9754 22.6513 27.2994C23.0053 27.6234 23.1823 28.1064 23.1823 28.7484V31.6284H22.3633V30.9984C22.2193 31.2204 22.0123 31.3914 21.7423 31.5114C21.4783 31.6254 21.1633 31.6824 20.7973 31.6824C20.2633 31.6824 19.8343 31.5534 19.5103 31.2954C19.1923 31.0374 19.0333 30.6984 19.0333 30.2784C19.0333 29.8584 19.1863 29.5224 19.4923 29.2704C19.7983 29.0124 20.2843 28.8834 20.9503 28.8834H22.3183V28.7124C22.3183 28.3404 22.2103 28.0554 21.9943 27.8574C21.7783 27.6594 21.4603 27.5604 21.0403 27.5604C20.7583 27.5604 20.4823 27.6084 20.2123 27.7044C19.9423 27.7944 19.7143 27.9174 19.5283 28.0734L19.1683 27.4254C19.4143 27.2274 19.7083 27.0774 20.0503 26.9754C20.3923 26.8674 20.7553 26.8134 21.1393 26.8134ZM20.9413 31.0164C21.2713 31.0164 21.5563 30.9444 21.7963 30.8004C22.0363 30.6504 22.2103 30.4404 22.3183 30.1704V29.5044H20.9863C20.2543 29.5044 19.8883 29.7504 19.8883 30.2424C19.8883 30.4824 19.9813 30.6714 20.1673 30.8094C20.3533 30.9474 20.6113 31.0164 20.9413 31.0164ZM27.9871 29.1534C28.6051 29.3094 28.9141 29.6964 28.9141 30.3144C28.9141 30.7344 28.7551 31.0584 28.4371 31.2864C28.1251 31.5144 27.6571 31.6284 27.0331 31.6284H24.7381V26.8584H26.9521C27.5161 26.8584 27.9571 26.9664 28.2751 27.1824C28.5931 27.3924 28.7521 27.6924 28.7521 28.0824C28.7521 28.3344 28.6831 28.5534 28.5451 28.7394C28.4131 28.9194 28.2271 29.0574 27.9871 29.1534ZM25.5841 28.9104H26.8801C27.2101 28.9104 27.4591 28.8504 27.6271 28.7304C27.8011 28.6104 27.8881 28.4364 27.8881 28.2084C27.8881 27.7524 27.5521 27.5244 26.8801 27.5244H25.5841V28.9104ZM26.9701 30.9624C27.3301 30.9624 27.6001 30.9054 27.7801 30.7914C27.9601 30.6774 28.0501 30.5004 28.0501 30.2604C28.0501 30.0144 27.9661 29.8314 27.7981 29.7114C27.6361 29.5914 27.3781 29.5314 27.0241 29.5314H25.5841V30.9624H26.9701ZM34.3614 26.8584V31.6284H33.4974V27.6144H31.4454L31.3914 28.6764C31.3614 29.3184 31.3044 29.8554 31.2204 30.2874C31.1364 30.7134 30.9984 31.0554 30.8064 31.3134C30.6144 31.5714 30.3474 31.7004 30.0054 31.7004C29.8494 31.7004 29.6724 31.6734 29.4744 31.6194L29.5284 30.8904C29.6064 30.9084 29.6784 30.9174 29.7444 30.9174C29.9844 30.9174 30.1644 30.8124 30.2844 30.6024C30.4044 30.3924 30.4824 30.1434 30.5184 29.8554C30.5544 29.5674 30.5874 29.1564 30.6174 28.6224L30.6984 26.8584H34.3614ZM40.3431 29.2704C40.3431 29.3364 40.3371 29.4234 40.3251 29.5314H36.4551C36.5091 29.9514 36.6921 30.2904 37.0041 30.5484C37.3221 30.8004 37.7151 30.9264 38.1831 30.9264C38.7531 30.9264 39.2121 30.7344 39.5601 30.3504L40.0371 30.9084C39.8211 31.1604 39.5511 31.3524 39.2271 31.4844C38.9091 31.6164 38.5521 31.6824 38.1561 31.6824C37.6521 31.6824 37.2051 31.5804 36.8151 31.3764C36.4251 31.1664 36.1221 30.8754 35.9061 30.5034C35.6961 30.1314 35.5911 29.7114 35.5911 29.2434C35.5911 28.7814 35.6931 28.3644 35.8971 27.9924C36.1071 27.6204 36.3921 27.3324 36.7521 27.1284C37.1181 26.9184 37.5291 26.8134 37.9851 26.8134C38.4411 26.8134 38.8461 26.9184 39.2001 27.1284C39.5601 27.3324 39.8391 27.6204 40.0371 27.9924C40.2411 28.3644 40.3431 28.7904 40.3431 29.2704ZM37.9851 27.5424C37.5711 27.5424 37.2231 27.6684 36.9411 27.9204C36.6651 28.1724 36.5031 28.5024 36.4551 28.9104H39.5151C39.4671 28.5084 39.3021 28.1814 39.0201 27.9294C38.7441 27.6714 38.3991 27.5424 37.9851 27.5424ZM41.6834 26.8584H42.5474V28.8834H45.2654V26.8584H46.1294V31.6284H45.2654V29.6304H42.5474V31.6284H41.6834V26.8584ZM47.8094 26.8584H48.6734V30.3324L51.5984 26.8584H52.3814V31.6284H51.5174V28.1544L48.6014 31.6284H47.8094V26.8584ZM58.3694 29.2704C58.3694 29.3364 58.3634 29.4234 58.3514 29.5314H54.4814C54.5354 29.9514 54.7184 30.2904 55.0304 30.5484C55.3484 30.8004 55.7414 30.9264 56.2094 30.9264C56.7794 30.9264 57.2384 30.7344 57.5864 30.3504L58.0634 30.9084C57.8474 31.1604 57.5774 31.3524 57.2534 31.4844C56.9354 31.6164 56.5784 31.6824 56.1824 31.6824C55.6784 31.6824 55.2314 31.5804 54.8414 31.3764C54.4514 31.1664 54.1484 30.8754 53.9324 30.5034C53.7224 30.1314 53.6174 29.7114 53.6174 29.2434C53.6174 28.7814 53.7194 28.3644 53.9234 27.9924C54.1334 27.6204 54.4184 27.3324 54.7784 27.1284C55.1444 26.9184 55.5554 26.8134 56.0114 26.8134C56.4674 26.8134 56.8724 26.9184 57.2264 27.1284C57.5864 27.3324 57.8654 27.6204 58.0634 27.9924C58.2674 28.3644 58.3694 28.7904 58.3694 29.2704ZM56.0114 27.5424C55.5974 27.5424 55.2494 27.6684 54.9674 27.9204C54.6914 28.1724 54.5294 28.5024 54.4814 28.9104H57.5414C57.4934 28.5084 57.3284 28.1814 57.0464 27.9294C56.7704 27.6714 56.4254 27.5424 56.0114 27.5424ZM64.6558 26.8134C65.1178 26.8134 65.5318 26.9154 65.8978 27.1194C66.2638 27.3234 66.5488 27.6084 66.7528 27.9744C66.9628 28.3404 67.0678 28.7634 67.0678 29.2434C67.0678 29.7234 66.9628 30.1494 66.7528 30.5214C66.5488 30.8874 66.2638 31.1724 65.8978 31.3764C65.5318 31.5804 65.1178 31.6824 64.6558 31.6824C64.3138 31.6824 63.9988 31.6164 63.7108 31.4844C63.4288 31.3524 63.1888 31.1604 62.9908 30.9084V33.3744H62.1268V26.8584H62.9548V27.6144C63.1468 27.3504 63.3898 27.1524 63.6838 27.0204C63.9778 26.8824 64.3018 26.8134 64.6558 26.8134ZM64.5838 30.9264C64.8898 30.9264 65.1628 30.8574 65.4028 30.7194C65.6488 30.5754 65.8408 30.3774 65.9788 30.1254C66.1228 29.8674 66.1948 29.5734 66.1948 29.2434C66.1948 28.9134 66.1228 28.6224 65.9788 28.3704C65.8408 28.1124 65.6488 27.9144 65.4028 27.7764C65.1628 27.6384 64.8898 27.5694 64.5838 27.5694C64.2838 27.5694 64.0108 27.6414 63.7648 27.7854C63.5248 27.9234 63.3328 28.1184 63.1888 28.3704C63.0508 28.6224 62.9818 28.9134 62.9818 29.2434C62.9818 29.5734 63.0508 29.8674 63.1888 30.1254C63.3268 30.3774 63.5188 30.5754 63.7648 30.7194C64.0108 30.8574 64.2838 30.9264 64.5838 30.9264ZM72.6341 29.2704C72.6341 29.3364 72.6281 29.4234 72.6161 29.5314H68.7461C68.8001 29.9514 68.9831 30.2904 69.2951 30.5484C69.6131 30.8004 70.0061 30.9264 70.4741 30.9264C71.0441 30.9264 71.5031 30.7344 71.8511 30.3504L72.3281 30.9084C72.1121 31.1604 71.8421 31.3524 71.5181 31.4844C71.2001 31.6164 70.8431 31.6824 70.4471 31.6824C69.9431 31.6824 69.4961 31.5804 69.1061 31.3764C68.7161 31.1664 68.4131 30.8754 68.1971 30.5034C67.9871 30.1314 67.8821 29.7114 67.8821 29.2434C67.8821 28.7814 67.9841 28.3644 68.1881 27.9924C68.3981 27.6204 68.6831 27.3324 69.0431 27.1284C69.4091 26.9184 69.8201 26.8134 70.2761 26.8134C70.7321 26.8134 71.1371 26.9184 71.4911 27.1284C71.8511 27.3324 72.1301 27.6204 72.3281 27.9924C72.5321 28.3644 72.6341 28.7904 72.6341 29.2704ZM70.2761 27.5424C69.8621 27.5424 69.5141 27.6684 69.2321 27.9204C68.9561 28.1724 68.7941 28.5024 68.7461 28.9104H71.8061C71.7581 28.5084 71.5931 28.1814 71.3111 27.9294C71.0351 27.6714 70.6901 27.5424 70.2761 27.5424ZM78.3935 26.8584V31.6284H77.5295V27.6144H74.8385V31.6284H73.9745V26.8584H78.3935ZM84.3223 26.8584L82.0093 32.1054C81.8053 32.5914 81.5653 32.9334 81.2893 33.1314C81.0193 33.3294 80.6923 33.4284 80.3083 33.4284C80.0743 33.4284 79.8463 33.3894 79.6243 33.3114C79.4083 33.2394 79.2283 33.1314 79.0843 32.9874L79.4533 32.3394C79.6993 32.5734 79.9843 32.6904 80.3083 32.6904C80.5183 32.6904 80.6923 32.6334 80.8303 32.5194C80.9743 32.4114 81.1033 32.2224 81.2173 31.9524L81.3703 31.6194L79.2643 26.8584H80.1643L81.8293 30.6744L83.4763 26.8584H84.3223ZM88.7882 27.6144H87.0422V31.6284H86.1782V27.6144H84.4322V26.8584H88.7882V27.6144ZM91.3727 26.8134C92.0327 26.8134 92.5367 26.9754 92.8847 27.2994C93.2387 27.6234 93.4157 28.1064 93.4157 28.7484V31.6284H92.5967V30.9984C92.4527 31.2204 92.2457 31.3914 91.9757 31.5114C91.7117 31.6254 91.3967 31.6824 91.0307 31.6824C90.4967 31.6824 90.0677 31.5534 89.7437 31.2954C89.4257 31.0374 89.2667 30.6984 89.2667 30.2784C89.2667 29.8584 89.4197 29.5224 89.7257 29.2704C90.0317 29.0124 90.5177 28.8834 91.1837 28.8834H92.5517V28.7124C92.5517 28.3404 92.4437 28.0554 92.2277 27.8574C92.0117 27.6594 91.6937 27.5604 91.2737 27.5604C90.9917 27.5604 90.7157 27.6084 90.4457 27.7044C90.1757 27.7944 89.9477 27.9174 89.7617 28.0734L89.4017 27.4254C89.6477 27.2274 89.9417 27.0774 90.2837 26.9754C90.6257 26.8674 90.9887 26.8134 91.3727 26.8134ZM91.1747 31.0164C91.5047 31.0164 91.7897 30.9444 92.0297 30.8004C92.2697 30.6504 92.4437 30.4404 92.5517 30.1704V29.5044H91.2197C90.4877 29.5044 90.1217 29.7504 90.1217 30.2424C90.1217 30.4824 90.2147 30.6714 90.4007 30.8094C90.5867 30.9474 90.8447 31.0164 91.1747 31.0164ZM100.066 30.8724V32.7714H99.2465V31.6284H94.9715V26.8584H95.8355V30.8724H98.4455V26.8584H99.3095V30.8724H100.066ZM101.185 26.8584H102.049V30.3324L104.974 26.8584H105.757V31.6284H104.893V28.1544L101.977 31.6284H101.185V26.8584ZM111.745 29.2704C111.745 29.3364 111.739 29.4234 111.727 29.5314H107.857C107.911 29.9514 108.094 30.2904 108.406 30.5484C108.724 30.8004 109.117 30.9264 109.585 30.9264C110.155 30.9264 110.614 30.7344 110.962 30.3504L111.439 30.9084C111.223 31.1604 110.953 31.3524 110.629 31.4844C110.311 31.6164 109.954 31.6824 109.558 31.6824C109.054 31.6824 108.607 31.5804 108.217 31.3764C107.827 31.1664 107.524 30.8754 107.308 30.5034C107.098 30.1314 106.993 29.7114 106.993 29.2434C106.993 28.7814 107.095 28.3644 107.299 27.9924C107.509 27.6204 107.794 27.3324 108.154 27.1284C108.52 26.9184 108.931 26.8134 109.387 26.8134C109.843 26.8134 110.248 26.9184 110.602 27.1284C110.962 27.3324 111.241 27.6204 111.439 27.9924C111.643 28.3644 111.745 28.7904 111.745 29.2704ZM109.387 27.5424C108.973 27.5424 108.625 27.6684 108.343 27.9204C108.067 28.1724 107.905 28.5024 107.857 28.9104H110.917C110.869 28.5084 110.704 28.1814 110.422 27.9294C110.146 27.6714 109.801 27.5424 109.387 27.5424ZM113.086 26.8584H113.95V30.3324L116.875 26.8584H117.658V31.6284H116.794V28.1544L113.878 31.6284H113.086V26.8584ZM115.318 26.2374C114.874 26.2374 114.529 26.1324 114.283 25.9224C114.037 25.7064 113.911 25.3974 113.905 24.9954H114.49C114.496 25.2174 114.571 25.3974 114.715 25.5354C114.865 25.6674 115.063 25.7334 115.309 25.7334C115.555 25.7334 115.753 25.6674 115.903 25.5354C116.053 25.3974 116.131 25.2174 116.137 24.9954H116.74C116.734 25.3974 116.605 25.7064 116.353 25.9224C116.101 26.1324 115.756 26.2374 115.318 26.2374Z" fill="#5E5E5E"/>
<path d="M12.9639 5.72842V17.6284H9.59791V12.9874H5.0079V17.6284H1.6419V5.72842H5.0079V10.1994H9.59791V5.72842H12.9639ZM20.0812 8.32942V15.0274H22.0022V17.6284H14.7772V15.0274H16.7152V8.32942H14.7772V5.72842H22.0022V8.32942H20.0812ZM23.8216 5.72842H29.4486C30.7519 5.72842 31.9079 5.97208 32.9166 6.45942C33.9253 6.94675 34.7073 7.63808 35.2626 8.53342C35.8179 9.42875 36.0956 10.4771 36.0956 11.6784C36.0956 12.8798 35.8179 13.9281 35.2626 14.8234C34.7073 15.7188 33.9253 16.4101 32.9166 16.8974C31.9079 17.3848 30.7519 17.6284 29.4486 17.6284H23.8216V5.72842ZM29.3126 14.9424C30.3326 14.9424 31.1486 14.6534 31.7606 14.0754C32.3839 13.4974 32.6956 12.6984 32.6956 11.6784C32.6956 10.6584 32.3839 9.85942 31.7606 9.28142C31.1486 8.70342 30.3326 8.41442 29.3126 8.41442H27.1876V14.9424H29.3126ZM48.1005 16.7274C47.4885 17.0788 46.7462 17.3564 45.8735 17.5604C45.0008 17.7644 44.0942 17.8664 43.1535 17.8664C41.8842 17.8664 40.8018 17.7134 39.9065 17.4074C39.0225 17.1014 38.3538 16.6764 37.9005 16.1324C37.4585 15.5884 37.2375 14.9594 37.2375 14.2454C37.2375 13.6221 37.4075 13.0724 37.7475 12.5964C38.0875 12.1204 38.5578 11.7521 39.1585 11.4914C38.6938 11.2534 38.3368 10.9248 38.0875 10.5054C37.8495 10.0748 37.7305 9.60442 37.7305 9.09442C37.7305 8.43708 37.9345 7.83642 38.3425 7.29242C38.7618 6.74842 39.3965 6.31208 40.2465 5.98342C41.0965 5.65475 42.1448 5.49042 43.3915 5.49042C44.1735 5.49042 44.9442 5.56408 45.7035 5.71142C46.4628 5.85875 47.1315 6.05708 47.7095 6.30642L46.7915 8.82242C45.7375 8.35775 44.6495 8.12542 43.5275 8.12542C42.7228 8.12542 42.1222 8.23308 41.7255 8.44842C41.3288 8.65242 41.1305 8.94142 41.1305 9.31542C41.1305 9.99542 41.6235 10.3354 42.6095 10.3354H45.9755V12.9024H42.3885C41.8105 12.9024 41.3742 12.9988 41.0795 13.1914C40.7848 13.3728 40.6375 13.6448 40.6375 14.0074C40.6375 14.3928 40.8528 14.6931 41.2835 14.9084C41.7142 15.1238 42.3828 15.2314 43.2895 15.2314C43.9355 15.2314 44.5985 15.1464 45.2785 14.9764C45.9698 14.7951 46.5705 14.5514 47.0805 14.2454L48.1005 16.7274Z" fill="#DFFDA7"/>
<path d="M63.9731 8.41442V17.6284H60.8961V16.7104C60.2954 17.4244 59.3887 17.7814 58.1761 17.7814C57.3374 17.7814 56.5724 17.5888 55.8811 17.2034C55.2011 16.8068 54.6571 16.2458 54.2491 15.5204C53.8524 14.7951 53.6541 13.9564 53.6541 13.0044C53.6541 12.0524 53.8524 11.2194 54.2491 10.5054C54.6571 9.78008 55.2011 9.22475 55.8811 8.83942C56.5724 8.45408 57.3374 8.26142 58.1761 8.26142C59.2641 8.26142 60.1197 8.57875 60.7431 9.21342V8.41442H63.9731ZM58.8561 15.2144C59.4227 15.2144 59.8874 15.0218 60.2501 14.6364C60.6127 14.2398 60.7941 13.6958 60.7941 13.0044C60.7941 12.3244 60.6127 11.7918 60.2501 11.4064C59.8874 11.0211 59.4227 10.8284 58.8561 10.8284C58.2894 10.8284 57.8247 11.0211 57.4621 11.4064C57.0994 11.7918 56.9181 12.3244 56.9181 13.0044C56.9181 13.6958 57.0994 14.2398 57.4621 14.6364C57.8247 15.0218 58.2894 15.2144 58.8561 15.2144ZM75.9634 8.41442V15.9454C75.9634 17.6568 75.4987 18.9374 74.5694 19.7874C73.64 20.6488 72.3027 21.0794 70.5574 21.0794C69.6507 21.0794 68.8007 20.9774 68.0074 20.7734C67.214 20.5694 66.5397 20.2691 65.9844 19.8724L67.1574 17.6114C67.5314 17.9174 68.0017 18.1554 68.5684 18.3254C69.1464 18.5068 69.713 18.5974 70.2684 18.5974C71.1184 18.5974 71.7417 18.4104 72.1384 18.0364C72.535 17.6624 72.7334 17.1071 72.7334 16.3704V16.0644C72.11 16.7898 71.1977 17.1524 69.9964 17.1524C69.1804 17.1524 68.4267 16.9711 67.7354 16.6084C67.044 16.2344 66.4944 15.7131 66.0864 15.0444C65.6784 14.3644 65.4744 13.5824 65.4744 12.6984C65.4744 11.8258 65.6784 11.0551 66.0864 10.3864C66.4944 9.70642 67.044 9.18508 67.7354 8.82242C68.4267 8.44842 69.1804 8.26142 69.9964 8.26142C71.311 8.26142 72.2744 8.68642 72.8864 9.53642V8.41442H75.9634ZM70.7614 14.5854C71.3394 14.5854 71.8154 14.4098 72.1894 14.0584C72.5747 13.7071 72.7674 13.2538 72.7674 12.6984C72.7674 12.1431 72.5804 11.6954 72.2064 11.3554C71.8324 11.0041 71.3507 10.8284 70.7614 10.8284C70.172 10.8284 69.6847 11.0041 69.2994 11.3554C68.9254 11.6954 68.7384 12.1431 68.7384 12.6984C68.7384 13.2538 68.931 13.7071 69.3164 14.0584C69.7017 14.4098 70.1834 14.5854 70.7614 14.5854ZM82.9687 15.3164C83.4107 15.3164 83.7904 15.2541 84.1077 15.1294C84.4364 15.0048 84.765 14.8008 85.0937 14.5174L86.7767 16.2854C85.904 17.2828 84.6007 17.7814 82.8667 17.7814C81.79 17.7814 80.8437 17.5774 80.0277 17.1694C79.2117 16.7614 78.577 16.1948 78.1237 15.4694C77.6817 14.7441 77.4607 13.9224 77.4607 13.0044C77.4607 12.0978 77.6817 11.2874 78.1237 10.5734C78.5657 9.84808 79.172 9.28142 79.9427 8.87342C80.7247 8.46542 81.5974 8.26142 82.5607 8.26142C83.456 8.26142 84.272 8.44842 85.0087 8.82242C85.7567 9.18508 86.3517 9.72342 86.7937 10.4374C87.2357 11.1401 87.4567 11.9788 87.4567 12.9534L80.8777 14.2114C81.229 14.9481 81.926 15.3164 82.9687 15.3164ZM82.5777 10.5564C82.0224 10.5564 81.569 10.7321 81.2177 11.0834C80.8664 11.4234 80.668 11.9164 80.6227 12.5624L84.3627 11.8314C84.2494 11.4461 84.034 11.1401 83.7167 10.9134C83.3994 10.6754 83.0197 10.5564 82.5777 10.5564ZM94.9469 8.26142C96.0916 8.26142 97.0096 8.60142 97.7009 9.28142C98.4036 9.96142 98.7549 10.9871 98.7549 12.3584V17.6284H95.5249V12.8854C95.5249 11.6274 95.0206 10.9984 94.0119 10.9984C93.4566 10.9984 93.0089 11.1798 92.6689 11.5424C92.3403 11.9051 92.1759 12.4491 92.1759 13.1744V17.6284H88.9459V8.41442H92.0229V9.41742C92.3856 9.04342 92.8163 8.76008 93.3149 8.56742C93.8136 8.36342 94.3576 8.26142 94.9469 8.26142ZM105.625 17.7814C104.605 17.7814 103.692 17.5774 102.888 17.1694C102.083 16.7614 101.454 16.1948 101.001 15.4694C100.559 14.7441 100.338 13.9224 100.338 13.0044C100.338 12.0864 100.559 11.2704 101.001 10.5564C101.454 9.83108 102.083 9.27008 102.888 8.87342C103.692 8.46542 104.605 8.26142 105.625 8.26142C106.667 8.26142 107.568 8.48808 108.328 8.94142C109.087 9.38342 109.625 10.0011 109.943 10.7944L107.444 12.0694C107.024 11.2421 106.412 10.8284 105.608 10.8284C105.03 10.8284 104.548 11.0211 104.163 11.4064C103.789 11.7918 103.602 12.3244 103.602 13.0044C103.602 13.6958 103.789 14.2398 104.163 14.6364C104.548 15.0218 105.03 15.2144 105.608 15.2144C106.412 15.2144 107.024 14.8008 107.444 13.9734L109.943 15.2484C109.625 16.0418 109.087 16.6651 108.328 17.1184C107.568 17.5604 106.667 17.7814 105.625 17.7814ZM120.849 8.41442V15.9454C120.849 17.6568 120.39 18.9374 119.472 19.7874C118.565 20.6488 117.256 21.0794 115.545 21.0794C114.649 21.0794 113.811 20.9774 113.029 20.7734C112.258 20.5694 111.601 20.2691 111.057 19.8724L112.23 17.6114C112.592 17.9174 113.046 18.1554 113.59 18.3254C114.145 18.5068 114.695 18.5974 115.239 18.5974C116.055 18.5974 116.655 18.4104 117.041 18.0364C117.426 17.6624 117.619 17.1071 117.619 16.3704V16.1664C116.927 16.8238 116.066 17.1524 115.035 17.1524C113.845 17.1524 112.893 16.8011 112.179 16.0984C111.476 15.3958 111.125 14.3418 111.125 12.9364V8.41442H114.355V12.4094C114.355 13.1121 114.485 13.6221 114.746 13.9394C115.006 14.2568 115.386 14.4154 115.885 14.4154C116.395 14.4154 116.808 14.2341 117.126 13.8714C117.454 13.5088 117.619 12.9648 117.619 12.2394V8.41442H120.849Z" fill="white"/>
</svg>
