<svg width="158" height="45" viewBox="0 0 158 45" fill="none" xmlns="http://www.w3.org/2000/svg">
<path d="M1.284 40.944C1.7 41.096 2.084 41.136 2.436 41.064C2.788 40.984 3.104 40.716 3.384 40.26L3.792 39.612L3.912 39.48L6.996 33.6H8.184L4.452 40.512C4.172 41.04 3.844 41.44 3.468 41.712C3.1 41.976 2.7 42.12 2.268 42.144C1.844 42.176 1.412 42.096 0.972 41.904L1.284 40.944ZM3.876 40.548L0.192 33.6H1.476L4.536 39.588L3.876 40.548ZM8.991 42V35.64H14.883V42H13.731V36.36L14.007 36.648H9.867L10.143 36.36V42H8.991ZM20.4841 42.072C19.9561 42.072 19.4721 41.952 19.0321 41.712C18.6001 41.464 18.2521 41.1 17.9881 40.62C17.7321 40.14 17.6041 39.54 17.6041 38.82C17.6041 38.1 17.7281 37.5 17.9761 37.02C18.2321 36.54 18.5761 36.18 19.0081 35.94C19.4481 35.7 19.9401 35.58 20.4841 35.58C21.1081 35.58 21.6601 35.716 22.1401 35.988C22.6201 36.26 23.0001 36.64 23.2801 37.128C23.5601 37.608 23.7001 38.172 23.7001 38.82C23.7001 39.468 23.5601 40.036 23.2801 40.524C23.0001 41.012 22.6201 41.392 22.1401 41.664C21.6601 41.936 21.1081 42.072 20.4841 42.072ZM17.1121 44.328V35.64H18.2161V37.356L18.1441 38.832L18.2641 40.308V44.328H17.1121ZM20.3881 41.064C20.7961 41.064 21.1601 40.972 21.4801 40.788C21.8081 40.604 22.0641 40.344 22.2481 40.008C22.4401 39.664 22.5361 39.268 22.5361 38.82C22.5361 38.364 22.4401 37.972 22.2481 37.644C22.0641 37.308 21.8081 37.048 21.4801 36.864C21.1601 36.68 20.7961 36.588 20.3881 36.588C19.9881 36.588 19.6241 36.68 19.2961 36.864C18.9761 37.048 18.7201 37.308 18.5281 37.644C18.3441 37.972 18.2521 38.364 18.2521 38.82C18.2521 39.268 18.3441 39.664 18.5281 40.008C18.7201 40.344 18.9761 40.604 19.2961 40.788C19.6241 40.972 19.9881 41.064 20.3881 41.064ZM29.2152 42V40.656L29.1552 40.404V38.112C29.1552 37.624 29.0112 37.248 28.7232 36.984C28.4432 36.712 28.0192 36.576 27.4512 36.576C27.0752 36.576 26.7072 36.64 26.3472 36.768C25.9872 36.888 25.6832 37.052 25.4352 37.26L24.9552 36.396C25.2832 36.132 25.6752 35.932 26.1312 35.796C26.5952 35.652 27.0792 35.58 27.5832 35.58C28.4552 35.58 29.1272 35.792 29.5992 36.216C30.0712 36.64 30.3072 37.288 30.3072 38.16V42H29.2152ZM27.1272 42.072C26.6552 42.072 26.2392 41.992 25.8792 41.832C25.5272 41.672 25.2552 41.452 25.0632 41.172C24.8712 40.884 24.7752 40.56 24.7752 40.2C24.7752 39.856 24.8552 39.544 25.0152 39.264C25.1832 38.984 25.4512 38.76 25.8192 38.592C26.1952 38.424 26.6992 38.34 27.3312 38.34H29.3472V39.168H27.3792C26.8032 39.168 26.4152 39.264 26.2152 39.456C26.0152 39.648 25.9152 39.88 25.9152 40.152C25.9152 40.464 26.0392 40.716 26.2872 40.908C26.5352 41.092 26.8792 41.184 27.3192 41.184C27.7512 41.184 28.1272 41.088 28.4472 40.896C28.7752 40.704 29.0112 40.424 29.1552 40.056L29.3832 40.848C29.2312 41.224 28.9632 41.524 28.5792 41.748C28.1952 41.964 27.7112 42.072 27.1272 42.072ZM32.3816 42V35.64H35.3336C36.0776 35.64 36.6616 35.784 37.0856 36.072C37.5176 36.352 37.7336 36.752 37.7336 37.272C37.7336 37.792 37.5296 38.196 37.1216 38.484C36.7216 38.764 36.1896 38.904 35.5256 38.904L35.7056 38.592C36.4656 38.592 37.0296 38.732 37.3976 39.012C37.7656 39.292 37.9496 39.704 37.9496 40.248C37.9496 40.8 37.7416 41.232 37.3256 41.544C36.9176 41.848 36.2896 42 35.4416 42H32.3816ZM33.5096 41.112H35.3576C35.8376 41.112 36.1976 41.04 36.4376 40.896C36.6776 40.744 36.7976 40.504 36.7976 40.176C36.7976 39.84 36.6856 39.596 36.4616 39.444C36.2456 39.284 35.9016 39.204 35.4296 39.204H33.5096V41.112ZM33.5096 38.376H35.2376C35.6776 38.376 36.0096 38.296 36.2336 38.136C36.4656 37.968 36.5816 37.736 36.5816 37.44C36.5816 37.136 36.4656 36.908 36.2336 36.756C36.0096 36.604 35.6776 36.528 35.2376 36.528H33.5096V38.376ZM38.6967 41.988L38.7687 41.016C38.8247 41.024 38.8767 41.032 38.9247 41.04C38.9727 41.048 39.0167 41.052 39.0567 41.052C39.3127 41.052 39.5127 40.964 39.6567 40.788C39.8087 40.612 39.9207 40.38 39.9927 40.092C40.0647 39.796 40.1167 39.464 40.1487 39.096C40.1807 38.728 40.2047 38.36 40.2207 37.992L40.3287 35.64H45.2127V42H44.0607V36.312L44.3367 36.648H41.0727L41.3367 36.3L41.2527 38.064C41.2287 38.624 41.1847 39.148 41.1207 39.636C41.0567 40.124 40.9567 40.552 40.8207 40.92C40.6927 41.288 40.5127 41.576 40.2807 41.784C40.0567 41.992 39.7647 42.096 39.4047 42.096C39.3007 42.096 39.1887 42.084 39.0687 42.06C38.9567 42.044 38.8327 42.02 38.6967 41.988ZM50.2722 42.072C49.5922 42.072 48.9922 41.932 48.4722 41.652C47.9602 41.372 47.5602 40.988 47.2722 40.5C46.9922 40.012 46.8522 39.452 46.8522 38.82C46.8522 38.188 46.9882 37.628 47.2602 37.14C47.5402 36.652 47.9202 36.272 48.4002 36C48.8882 35.72 49.4362 35.58 50.0442 35.58C50.6602 35.58 51.2042 35.716 51.6762 35.988C52.1482 36.26 52.5162 36.644 52.7802 37.14C53.0522 37.628 53.1882 38.2 53.1882 38.856C53.1882 38.904 53.1842 38.96 53.1762 39.024C53.1762 39.088 53.1722 39.148 53.1642 39.204H47.7522V38.376H52.5642L52.0962 38.664C52.1042 38.256 52.0202 37.892 51.8442 37.572C51.6682 37.252 51.4242 37.004 51.1122 36.828C50.8082 36.644 50.4522 36.552 50.0442 36.552C49.6442 36.552 49.2882 36.644 48.9762 36.828C48.6642 37.004 48.4202 37.256 48.2442 37.584C48.0682 37.904 47.9802 38.272 47.9802 38.688V38.88C47.9802 39.304 48.0762 39.684 48.2682 40.02C48.4682 40.348 48.7442 40.604 49.0962 40.788C49.4482 40.972 49.8522 41.064 50.3082 41.064C50.6842 41.064 51.0242 41 51.3282 40.872C51.6402 40.744 51.9122 40.552 52.1442 40.296L52.7802 41.04C52.4922 41.376 52.1322 41.632 51.7002 41.808C51.2762 41.984 50.8002 42.072 50.2722 42.072ZM54.9754 42V35.64H56.1274V38.34H59.7514V35.64H60.9034V42H59.7514V39.336H56.1274V42H54.9754ZM63.1433 42V35.64H64.2953V40.272L68.1953 35.64H69.2393V42H68.0873V37.368L64.1993 42H63.1433ZM74.3074 42.072C73.6274 42.072 73.0274 41.932 72.5074 41.652C71.9954 41.372 71.5954 40.988 71.3074 40.5C71.0274 40.012 70.8874 39.452 70.8874 38.82C70.8874 38.188 71.0234 37.628 71.2954 37.14C71.5754 36.652 71.9554 36.272 72.4354 36C72.9234 35.72 73.4714 35.58 74.0794 35.58C74.6954 35.58 75.2394 35.716 75.7114 35.988C76.1834 36.26 76.5514 36.644 76.8154 37.14C77.0874 37.628 77.2234 38.2 77.2234 38.856C77.2234 38.904 77.2194 38.96 77.2114 39.024C77.2114 39.088 77.2074 39.148 77.1994 39.204H71.7874V38.376H76.5994L76.1314 38.664C76.1394 38.256 76.0554 37.892 75.8794 37.572C75.7034 37.252 75.4594 37.004 75.1474 36.828C74.8434 36.644 74.4874 36.552 74.0794 36.552C73.6794 36.552 73.3234 36.644 73.0114 36.828C72.6994 37.004 72.4554 37.256 72.2794 37.584C72.1034 37.904 72.0154 38.272 72.0154 38.688V38.88C72.0154 39.304 72.1114 39.684 72.3034 40.02C72.5034 40.348 72.7794 40.604 73.1314 40.788C73.4834 40.972 73.8874 41.064 74.3434 41.064C74.7194 41.064 75.0594 41 75.3634 40.872C75.6754 40.744 75.9474 40.552 76.1794 40.296L76.8154 41.04C76.5274 41.376 76.1674 41.632 75.7354 41.808C75.3114 41.984 74.8354 42.072 74.3074 42.072ZM85.6052 42.072C85.0772 42.072 84.5932 41.952 84.1532 41.712C83.7212 41.464 83.3732 41.1 83.1092 40.62C82.8532 40.14 82.7252 39.54 82.7252 38.82C82.7252 38.1 82.8492 37.5 83.0972 37.02C83.3532 36.54 83.6972 36.18 84.1292 35.94C84.5692 35.7 85.0612 35.58 85.6052 35.58C86.2292 35.58 86.7812 35.716 87.2612 35.988C87.7412 36.26 88.1212 36.64 88.4012 37.128C88.6812 37.608 88.8212 38.172 88.8212 38.82C88.8212 39.468 88.6812 40.036 88.4012 40.524C88.1212 41.012 87.7412 41.392 87.2612 41.664C86.7812 41.936 86.2292 42.072 85.6052 42.072ZM82.2332 44.328V35.64H83.3372V37.356L83.2652 38.832L83.3852 40.308V44.328H82.2332ZM85.5092 41.064C85.9172 41.064 86.2812 40.972 86.6012 40.788C86.9292 40.604 87.1852 40.344 87.3692 40.008C87.5612 39.664 87.6572 39.268 87.6572 38.82C87.6572 38.364 87.5612 37.972 87.3692 37.644C87.1852 37.308 86.9292 37.048 86.6012 36.864C86.2812 36.68 85.9172 36.588 85.5092 36.588C85.1092 36.588 84.7452 36.68 84.4172 36.864C84.0972 37.048 83.8412 37.308 83.6492 37.644C83.4652 37.972 83.3732 38.364 83.3732 38.82C83.3732 39.268 83.4652 39.664 83.6492 40.008C83.8412 40.344 84.0972 40.604 84.4172 40.788C84.7452 40.972 85.1092 41.064 85.5092 41.064ZM93.3269 42.072C92.6469 42.072 92.0469 41.932 91.5269 41.652C91.0149 41.372 90.6149 40.988 90.3269 40.5C90.0469 40.012 89.9069 39.452 89.9069 38.82C89.9069 38.188 90.0429 37.628 90.3149 37.14C90.5949 36.652 90.9749 36.272 91.4549 36C91.9429 35.72 92.4909 35.58 93.0989 35.58C93.7149 35.58 94.2589 35.716 94.7309 35.988C95.2029 36.26 95.5709 36.644 95.8349 37.14C96.1069 37.628 96.2429 38.2 96.2429 38.856C96.2429 38.904 96.2389 38.96 96.2309 39.024C96.2309 39.088 96.2269 39.148 96.2189 39.204H90.8069V38.376H95.6189L95.1509 38.664C95.1589 38.256 95.0749 37.892 94.8989 37.572C94.7229 37.252 94.4789 37.004 94.1669 36.828C93.8629 36.644 93.5069 36.552 93.0989 36.552C92.6989 36.552 92.3429 36.644 92.0309 36.828C91.7189 37.004 91.4749 37.256 91.2989 37.584C91.1229 37.904 91.0349 38.272 91.0349 38.688V38.88C91.0349 39.304 91.1309 39.684 91.3229 40.02C91.5229 40.348 91.7989 40.604 92.1509 40.788C92.5029 40.972 92.9069 41.064 93.3629 41.064C93.7389 41.064 94.0789 41 94.3829 40.872C94.6949 40.744 94.9669 40.552 95.1989 40.296L95.8349 41.04C95.5469 41.376 95.1869 41.632 94.7549 41.808C94.3309 41.984 93.8549 42.072 93.3269 42.072ZM98.0301 42V35.64H103.922V42H102.77V36.36L103.046 36.648H98.9061L99.1821 36.36V42H98.0301ZM106.475 44.4C106.171 44.4 105.875 44.348 105.587 44.244C105.299 44.148 105.051 44.004 104.843 43.812L105.335 42.948C105.495 43.1 105.671 43.216 105.863 43.296C106.055 43.376 106.259 43.416 106.475 43.416C106.755 43.416 106.987 43.344 107.171 43.2C107.355 43.056 107.527 42.8 107.687 42.432L108.083 41.556L108.203 41.412L110.699 35.64H111.827L108.743 42.636C108.559 43.084 108.351 43.436 108.119 43.692C107.895 43.948 107.647 44.128 107.375 44.232C107.103 44.344 106.803 44.4 106.475 44.4ZM107.987 42.204L105.083 35.64H106.283L108.755 41.304L107.987 42.204ZM114.267 42V36.348L114.555 36.648H111.939V35.64H117.747V36.648H115.143L115.419 36.348V42H114.267ZM122.825 42V40.656L122.765 40.404V38.112C122.765 37.624 122.621 37.248 122.333 36.984C122.053 36.712 121.629 36.576 121.061 36.576C120.685 36.576 120.317 36.64 119.957 36.768C119.597 36.888 119.293 37.052 119.045 37.26L118.565 36.396C118.893 36.132 119.285 35.932 119.741 35.796C120.205 35.652 120.689 35.58 121.193 35.58C122.065 35.58 122.737 35.792 123.209 36.216C123.681 36.64 123.917 37.288 123.917 38.16V42H122.825ZM120.737 42.072C120.265 42.072 119.849 41.992 119.489 41.832C119.137 41.672 118.865 41.452 118.673 41.172C118.481 40.884 118.385 40.56 118.385 40.2C118.385 39.856 118.465 39.544 118.625 39.264C118.793 38.984 119.061 38.76 119.429 38.592C119.805 38.424 120.309 38.34 120.941 38.34H122.957V39.168H120.989C120.413 39.168 120.025 39.264 119.825 39.456C119.625 39.648 119.525 39.88 119.525 40.152C119.525 40.464 119.649 40.716 119.897 40.908C120.145 41.092 120.489 41.184 120.929 41.184C121.361 41.184 121.737 41.088 122.057 40.896C122.385 40.704 122.621 40.424 122.765 40.056L122.993 40.848C122.841 41.224 122.573 41.524 122.189 41.748C121.805 41.964 121.321 42.072 120.737 42.072ZM125.991 42V35.64H127.143V40.992H130.623V35.64H131.775V42H125.991ZM131.691 43.476V41.94L131.979 42H130.623V40.992H132.783V43.476H131.691ZM134.276 42V35.64H135.428V40.272L139.328 35.64H140.372V42H139.22V37.368L135.332 42H134.276ZM145.44 42.072C144.76 42.072 144.16 41.932 143.64 41.652C143.128 41.372 142.728 40.988 142.44 40.5C142.16 40.012 142.02 39.452 142.02 38.82C142.02 38.188 142.156 37.628 142.428 37.14C142.708 36.652 143.088 36.272 143.568 36C144.056 35.72 144.604 35.58 145.212 35.58C145.828 35.58 146.372 35.716 146.844 35.988C147.316 36.26 147.684 36.644 147.948 37.14C148.22 37.628 148.356 38.2 148.356 38.856C148.356 38.904 148.352 38.96 148.344 39.024C148.344 39.088 148.34 39.148 148.332 39.204H142.92V38.376H147.732L147.264 38.664C147.272 38.256 147.188 37.892 147.012 37.572C146.836 37.252 146.592 37.004 146.28 36.828C145.976 36.644 145.62 36.552 145.212 36.552C144.812 36.552 144.456 36.644 144.144 36.828C143.832 37.004 143.588 37.256 143.412 37.584C143.236 37.904 143.148 38.272 143.148 38.688V38.88C143.148 39.304 143.244 39.684 143.436 40.02C143.636 40.348 143.912 40.604 144.264 40.788C144.616 40.972 145.02 41.064 145.476 41.064C145.852 41.064 146.192 41 146.496 40.872C146.808 40.744 147.08 40.552 147.312 40.296L147.948 41.04C147.66 41.376 147.3 41.632 146.868 41.808C146.444 41.984 145.968 42.072 145.44 42.072ZM150.143 42V35.64H151.295V40.272L155.195 35.64H156.239V42H155.087V37.368L151.199 42H150.143ZM153.119 34.812C152.535 34.812 152.075 34.672 151.739 34.392C151.411 34.104 151.243 33.692 151.235 33.156H152.015C152.023 33.46 152.123 33.7 152.315 33.876C152.515 34.052 152.779 34.14 153.107 34.14C153.435 34.14 153.699 34.052 153.899 33.876C154.099 33.7 154.203 33.46 154.211 33.156H155.015C155.007 33.692 154.835 34.104 154.499 34.392C154.163 34.672 153.703 34.812 153.119 34.812Z" fill="#5E5E5E"/>
<path d="M16.192 5.6V21H11.836V14.994H5.896V21H1.54V5.6H5.896V11.386H11.836V5.6H16.192ZM25.4026 8.966V17.634H27.8886V21H18.5386V17.634H21.0466V8.966H18.5386V5.6H27.8886V8.966H25.4026ZM30.2431 5.6H37.5251C39.2118 5.6 40.7078 5.91533 42.0131 6.546C43.3185 7.17667 44.3305 8.07133 45.0491 9.23C45.7678 10.3887 46.1271 11.7453 46.1271 13.3C46.1271 14.8547 45.7678 16.2113 45.0491 17.37C44.3305 18.5287 43.3185 19.4233 42.0131 20.054C40.7078 20.6847 39.2118 21 37.5251 21H30.2431V5.6ZM37.3491 17.524C38.6691 17.524 39.7251 17.15 40.5171 16.402C41.3238 15.654 41.7271 14.62 41.7271 13.3C41.7271 11.98 41.3238 10.946 40.5171 10.198C39.7251 9.45 38.6691 9.076 37.3491 9.076H34.5991V17.524H37.3491ZM61.6629 19.834C60.8709 20.2887 59.9102 20.648 58.7809 20.912C57.6516 21.176 56.4782 21.308 55.2609 21.308C53.6182 21.308 52.2176 21.11 51.0589 20.714C49.9149 20.318 49.0496 19.768 48.4629 19.064C47.8909 18.36 47.6049 17.546 47.6049 16.622C47.6049 15.8153 47.8249 15.104 48.2649 14.488C48.7049 13.872 49.3136 13.3953 50.0909 13.058C49.4896 12.75 49.0276 12.3247 48.7049 11.782C48.3969 11.2247 48.2429 10.616 48.2429 9.956C48.2429 9.10533 48.5069 8.328 49.0349 7.624C49.5776 6.92 50.3989 6.35533 51.4989 5.93C52.5989 5.50467 53.9556 5.292 55.5689 5.292C56.5809 5.292 57.5782 5.38733 58.5609 5.578C59.5436 5.76867 60.4089 6.02533 61.1569 6.348L59.9689 9.604C58.6049 9.00267 57.1969 8.702 55.7449 8.702C54.7036 8.702 53.9262 8.84133 53.4129 9.12C52.8996 9.384 52.6429 9.758 52.6429 10.242C52.6429 11.122 53.2809 11.562 54.5569 11.562H58.9129V14.884H54.2709C53.5229 14.884 52.9582 15.0087 52.5769 15.258C52.1956 15.4927 52.0049 15.8447 52.0049 16.314C52.0049 16.8127 52.2836 17.2013 52.8409 17.48C53.3982 17.7587 54.2636 17.898 55.4369 17.898C56.2729 17.898 57.1309 17.788 58.0109 17.568C58.9056 17.3333 59.6829 17.018 60.3429 16.622L61.6629 19.834Z" fill="#DFFDA7"/>
<path d="M82.2039 9.076V21H78.2219V19.812C77.4445 20.736 76.2712 21.198 74.7019 21.198C73.6165 21.198 72.6265 20.9487 71.7319 20.45C70.8519 19.9367 70.1479 19.2107 69.6199 18.272C69.1065 17.3333 68.8499 16.248 68.8499 15.016C68.8499 13.784 69.1065 12.706 69.6199 11.782C70.1479 10.8433 70.8519 10.1247 71.7319 9.626C72.6265 9.12733 73.6165 8.878 74.7019 8.878C76.1099 8.878 77.2172 9.28867 78.0239 10.11V9.076H82.2039ZM75.5819 17.876C76.3152 17.876 76.9165 17.6267 77.3859 17.128C77.8552 16.6147 78.0899 15.9107 78.0899 15.016C78.0899 14.136 77.8552 13.4467 77.3859 12.948C76.9165 12.4493 76.3152 12.2 75.5819 12.2C74.8485 12.2 74.2472 12.4493 73.7779 12.948C73.3085 13.4467 73.0739 14.136 73.0739 15.016C73.0739 15.9107 73.3085 16.6147 73.7779 17.128C74.2472 17.6267 74.8485 17.876 75.5819 17.876ZM97.7207 9.076V18.822C97.7207 21.0367 97.1194 22.694 95.9167 23.794C94.7141 24.9087 92.9834 25.466 90.7247 25.466C89.5514 25.466 88.4514 25.334 87.4247 25.07C86.3981 24.806 85.5254 24.4173 84.8067 23.904L86.3247 20.978C86.8087 21.374 87.4174 21.682 88.1507 21.902C88.8987 22.1367 89.6321 22.254 90.3507 22.254C91.4507 22.254 92.2574 22.012 92.7707 21.528C93.2841 21.044 93.5407 20.3253 93.5407 19.372V18.976C92.7341 19.9147 91.5534 20.384 89.9987 20.384C88.9427 20.384 87.9674 20.1493 87.0727 19.68C86.1781 19.196 85.4667 18.5213 84.9387 17.656C84.4107 16.776 84.1467 15.764 84.1467 14.62C84.1467 13.4907 84.4107 12.4933 84.9387 11.628C85.4667 10.748 86.1781 10.0733 87.0727 9.604C87.9674 9.12 88.9427 8.878 89.9987 8.878C91.7001 8.878 92.9467 9.428 93.7387 10.528V9.076H97.7207ZM90.9887 17.062C91.7367 17.062 92.3527 16.8347 92.8367 16.38C93.3354 15.9253 93.5847 15.3387 93.5847 14.62C93.5847 13.9013 93.3427 13.322 92.8587 12.882C92.3747 12.4273 91.7514 12.2 90.9887 12.2C90.2261 12.2 89.5954 12.4273 89.0967 12.882C88.6127 13.322 88.3707 13.9013 88.3707 14.62C88.3707 15.3387 88.6201 15.9253 89.1187 16.38C89.6174 16.8347 90.2407 17.062 90.9887 17.062ZM106.786 18.008C107.358 18.008 107.85 17.9273 108.26 17.766C108.686 17.6047 109.111 17.3407 109.536 16.974L111.714 19.262C110.585 20.5527 108.898 21.198 106.654 21.198C105.261 21.198 104.036 20.934 102.98 20.406C101.924 19.878 101.103 19.1447 100.516 18.206C99.9445 17.2673 99.6585 16.204 99.6585 15.016C99.6585 13.8427 99.9445 12.794 100.516 11.87C101.088 10.9313 101.873 10.198 102.87 9.67C103.882 9.142 105.012 8.878 106.258 8.878C107.417 8.878 108.473 9.12 109.426 9.604C110.394 10.0733 111.164 10.77 111.736 11.694C112.308 12.6033 112.594 13.6887 112.594 14.95L104.08 16.578C104.535 17.5313 105.437 18.008 106.786 18.008ZM106.28 11.848C105.562 11.848 104.975 12.0753 104.52 12.53C104.066 12.97 103.809 13.608 103.75 14.444L108.59 13.498C108.444 12.9993 108.165 12.6033 107.754 12.31C107.344 12.002 106.852 11.848 106.28 11.848ZM122.288 8.878C123.769 8.878 124.957 9.318 125.852 10.198C126.761 11.078 127.216 12.4053 127.216 14.18V21H123.036V14.862C123.036 13.234 122.383 12.42 121.078 12.42C120.359 12.42 119.78 12.6547 119.34 13.124C118.914 13.5933 118.702 14.2973 118.702 15.236V21H114.522V9.076H118.504V10.374C118.973 9.89 119.53 9.52333 120.176 9.274C120.821 9.01 121.525 8.878 122.288 8.878ZM136.106 21.198C134.786 21.198 133.605 20.934 132.564 20.406C131.523 19.878 130.709 19.1447 130.122 18.206C129.55 17.2673 129.264 16.204 129.264 15.016C129.264 13.828 129.55 12.772 130.122 11.848C130.709 10.9093 131.523 10.1833 132.564 9.67C133.605 9.142 134.786 8.878 136.106 8.878C137.455 8.878 138.621 9.17133 139.604 9.758C140.587 10.33 141.283 11.1293 141.694 12.156L138.46 13.806C137.917 12.7353 137.125 12.2 136.084 12.2C135.336 12.2 134.713 12.4493 134.214 12.948C133.73 13.4467 133.488 14.136 133.488 15.016C133.488 15.9107 133.73 16.6147 134.214 17.128C134.713 17.6267 135.336 17.876 136.084 17.876C137.125 17.876 137.917 17.3407 138.46 16.27L141.694 17.92C141.283 18.9467 140.587 19.7533 139.604 20.34C138.621 20.912 137.455 21.198 136.106 21.198ZM155.808 9.076V18.822C155.808 21.0367 155.214 22.694 154.026 23.794C152.852 24.9087 151.158 25.466 148.944 25.466C147.785 25.466 146.7 25.334 145.688 25.07C144.69 24.806 143.84 24.4173 143.136 23.904L144.654 20.978C145.123 21.374 145.71 21.682 146.414 21.902C147.132 22.1367 147.844 22.254 148.548 22.254C149.604 22.254 150.381 22.012 150.88 21.528C151.378 21.044 151.628 20.3253 151.628 19.372V19.108C150.733 19.9587 149.618 20.384 148.284 20.384C146.744 20.384 145.512 19.9293 144.588 19.02C143.678 18.1107 143.224 16.7467 143.224 14.928V9.076H147.404V14.246C147.404 15.1553 147.572 15.8153 147.91 16.226C148.247 16.6367 148.738 16.842 149.384 16.842C150.044 16.842 150.579 16.6073 150.99 16.138C151.415 15.6687 151.628 14.9647 151.628 14.026V9.076H155.808Z" fill="white"/>
</svg>
